# Blender v2.81 (sub 16) OBJ File: 'heartuv2x.blend'
# www.blender.org
o HeartPie
v -0.246715 -0.003137 0.762707
v -0.639190 -0.003137 0.302215
v -0.739689 -0.003137 0.163909
v -0.835209 -0.003137 0.019586
v -0.922782 -0.003137 -0.129125
v -0.045407 -0.003137 0.965110
v -0.097716 -0.003137 0.914515
v -0.165807 -0.003137 0.846505
v -0.337474 -0.003137 0.664751
v -0.435116 -0.003137 0.554265
v -0.536677 -0.003137 0.432877
v -0.000000 -0.003137 -0.183042
v 0.000000 -0.003137 1.000000
v 0.000000 -0.003137 0.457802
v -0.246715 -1.003137 0.762707
v -0.639190 -1.003137 0.302215
v -0.739689 -1.003137 0.163909
v -0.835209 -1.003137 0.019586
v -0.922782 -1.003137 -0.129125
v -0.045407 -1.003137 0.965110
v -0.097716 -1.003137 0.914515
v -0.165807 -1.003137 0.846505
v -0.337474 -1.003137 0.664751
v -0.435116 -1.003137 0.554265
v -0.536677 -1.003137 0.432877
v -0.000000 -1.003137 -0.183042
v 0.000000 -1.003137 1.000000
v 0.000000 -1.003137 0.457802
vt 0.498463 0.587669
vt 0.816532 0.347425
vt 0.498036 0.269158
vt 0.497935 0.000157
vt 0.520553 0.017525
vt 0.546619 0.042707
vt 0.580553 0.076556
vt 0.620876 0.118261
vt 0.666112 0.167012
vt 0.714785 0.221997
vt 0.765417 0.282405
vt 0.866652 0.416248
vt 0.914302 0.488060
vt 0.958003 0.562053
vt 0.498463 0.587669
vt 0.498036 0.269158
vt 0.816532 0.347425
vt 0.497935 0.000157
vt 0.520553 0.017525
vt 0.546619 0.042707
vt 0.580553 0.076556
vt 0.620876 0.118261
vt 0.666112 0.167012
vt 0.714785 0.221997
vt 0.765417 0.282405
vt 0.866652 0.416248
vt 0.914302 0.488060
vt 0.958003 0.562053
vt 0.000053 0.999947
vt 0.000053 0.741204
vt 0.279970 0.741204
vt 0.279971 0.999947
vt 0.000053 0.048361
vt 0.000053 0.000053
vt 0.279971 0.000053
vt 0.279971 0.048361
vt 0.000053 0.314106
vt 0.000053 0.276726
vt 0.279970 0.276727
vt 0.279970 0.314106
vt 0.000053 0.394021
vt 0.000053 0.373650
vt 0.279970 0.373650
vt 0.279970 0.394021
vt 0.000053 0.191150
vt 0.000053 0.144662
vt 0.279970 0.144663
vt 0.279970 0.191150
vt 0.000053 0.346711
vt 0.279970 0.346712
vt 0.000053 0.235453
vt 0.279970 0.235453
vt 0.000053 0.561821
vt 0.000053 0.410050
vt 0.279970 0.410050
vt 0.279970 0.561821
vt 0.000053 0.096806
vt 0.279970 0.096807
vn 0.0000 1.0000 0.0000
vn 0.0000 -1.0000 -0.0000
vn -0.0583 0.0000 -0.9983
vn -0.8481 0.0000 0.5299
vn -0.8617 0.0000 0.5074
vn -0.7265 0.0000 0.6872
vn -0.7415 0.0000 0.6710
vn -0.6533 0.0000 0.7571
vn -0.7010 0.0000 0.7132
vn -0.7770 0.0000 0.6296
vn -0.7980 0.0000 0.6027
vn -0.7131 0.0000 0.7011
vn -0.7582 0.0000 0.6520
vn 1.0000 0.0000 -0.0000
vn -0.8216 0.0000 0.5700
vn -0.6093 0.0000 0.7929
s 1
f 12/1/1 2/2/1 14/3/1
f 13/4/1 14/3/1 6/5/1
f 6/5/1 14/3/1 7/6/1
f 7/6/1 14/3/1 8/7/1
f 8/7/1 14/3/1 1/8/1
f 1/8/1 14/3/1 9/9/1
f 9/9/1 14/3/1 10/10/1
f 10/10/1 14/3/1 11/11/1
f 11/11/1 14/3/1 2/2/1
f 2/2/1 12/1/1 3/12/1
f 3/12/1 12/1/1 4/13/1
f 4/13/1 12/1/1 5/14/1
f 26/15/2 28/16/2 16/17/2
f 27/18/2 20/19/2 28/16/2
f 20/19/2 21/20/2 28/16/2
f 21/20/2 22/21/2 28/16/2
f 22/21/2 15/22/2 28/16/2
f 15/22/2 23/23/2 28/16/2
f 23/23/2 24/24/2 28/16/2
f 24/24/2 25/25/2 28/16/2
f 25/25/2 16/17/2 28/16/2
f 16/17/2 17/26/2 26/15/2
f 17/26/2 18/27/2 26/15/2
f 18/27/2 19/28/2 26/15/2
f 5/29/3 12/30/3 26/31/3 19/32/3
f 4/33/4 5/34/5 19/35/5 18/36/4
f 1/37/6 9/38/7 23/39/7 15/40/6
f 6/41/8 7/42/9 21/43/9 20/44/8
f 11/45/10 2/46/11 16/47/11 25/48/10
f 7/42/9 8/49/12 22/50/12 21/43/9
f 9/38/7 10/51/13 24/52/13 23/39/7
f 10/51/13 11/45/10 25/48/10 24/52/13
f 14/53/14 13/54/14 27/55/14 28/56/14
f 2/46/11 3/57/15 17/58/15 16/47/11
f 12/30/14 14/53/14 28/56/14 26/31/14
f 13/54/16 6/41/8 20/44/8 27/55/16
f 3/57/15 4/33/4 18/36/4 17/58/15
f 8/49/12 1/37/6 15/40/6 22/50/12
